<svg xmlns="http://www.w3.org/2000/svg" viewBox="-0.5 -0.5 13 14" shape-rendering="crispEdges"><rect x="2" y="0" width="1" height="1" fill="#fcaa2d"/><rect x="7" y="0" width="1" height="1" fill="#fda727"/><rect x="8" y="0" width="1" height="1" fill="#ffcc25"/><rect x="9" y="0" width="1" height="1" fill="#fecd0e"/><rect x="11" y="0" width="1" height="1" fill="#fece0c"/><rect x="0" y="1" width="1" height="1" fill="#9c9c9e"/><rect x="4" y="1" width="1" height="1" fill="#dc3559"/><rect x="5" y="1" width="1" height="1" fill="#f54e44"/><rect x="6" y="1" width="1" height="1" fill="#fe873b"/><rect x="7" y="1" width="1" height="1" fill="#fe7f26"/><rect x="8" y="1" width="1" height="1" fill="#fca425"/><rect x="9" y="1" width="1" height="1" fill="#fdc524"/><rect x="10" y="1" width="1" height="1" fill="#fea309"/><rect x="2" y="2" width="1" height="1" fill="#734c92"/><rect x="3" y="2" width="1" height="1" fill="#d883bf"/><rect x="4" y="2" width="1" height="1" fill="#c8317d"/><rect x="5" y="2" width="1" height="1" fill="#e63c61"/><rect x="6" y="2" width="1" height="1" fill="#f54646"/><rect x="7" y="2" width="1" height="1" fill="#fb6449"/><rect x="8" y="2" width="1" height="1" fill="#f95920"/><rect x="9" y="2" width="1" height="1" fill="#f29a18"/><rect x="11" y="2" width="1" height="1" fill="#eec125"/><rect x="0" y="3" width="1" height="1" fill="#e8e7ea"/><rect x="1" y="3" width="1" height="1" fill="#857b8e"/><rect x="2" y="3" width="1" height="1" fill="#b5a6c0"/><rect x="3" y="3" width="1" height="1" fill="#734290"/><rect x="4" y="3" width="1" height="1" fill="#c451aa"/><rect x="5" y="3" width="1" height="1" fill="#a52170"/><rect x="6" y="3" width="1" height="1" fill="#dc2f65"/><rect x="7" y="3" width="1" height="1" fill="#e82943"/><rect x="8" y="3" width="1" height="1" fill="#f95941"/><rect x="9" y="3" width="1" height="1" fill="#d14e9c"/><rect x="10" y="3" width="1" height="1" fill="#efad22"/><rect x="11" y="3" width="1" height="1" fill="#a4c739"/><rect x="0" y="4" width="1" height="1" fill="#909092"/><rect x="1" y="4" width="1" height="1" fill="#78787a"/><rect x="2" y="4" width="1" height="1" fill="#7c7187"/><rect x="3" y="4" width="1" height="1" fill="#75588d"/><rect x="4" y="4" width="1" height="1" fill="#60358a"/><rect x="5" y="4" width="1" height="1" fill="#8a3397"/><rect x="6" y="4" width="1" height="1" fill="#a92e95"/><rect x="7" y="4" width="1" height="1" fill="#a81a63"/><rect x="8" y="4" width="1" height="1" fill="#a83681"/><rect x="9" y="4" width="1" height="1" fill="#0c75ab"/><rect x="10" y="4" width="1" height="1" fill="#48b28e"/><rect x="11" y="4" width="1" height="1" fill="#97cf83"/><rect x="0" y="5" width="1" height="1" fill="#3f3e41"/><rect x="1" y="5" width="1" height="1" fill="#5e5e60"/><rect x="2" y="5" width="1" height="1" fill="#56555a"/><rect x="3" y="5" width="1" height="1" fill="#7d7288"/><rect x="4" y="5" width="1" height="1" fill="#6e5491"/><rect x="5" y="5" width="1" height="1" fill="#4e328b"/><rect x="6" y="5" width="1" height="1" fill="#562e8b"/><rect x="7" y="5" width="1" height="1" fill="#973a9b"/><rect x="8" y="5" width="1" height="1" fill="#154db5"/><rect x="9" y="5" width="1" height="1" fill="#0f85ad"/><rect x="10" y="5" width="1" height="1" fill="#06aba5"/><rect x="0" y="6" width="1" height="1" fill="#1f1f21"/><rect x="1" y="6" width="1" height="1" fill="#363538"/><rect x="2" y="6" width="1" height="1" fill="#535255"/><rect x="3" y="6" width="1" height="1" fill="#5b5a5f"/><rect x="4" y="6" width="1" height="1" fill="#5c5a71"/><rect x="5" y="6" width="1" height="1" fill="#79749f"/><rect x="6" y="6" width="1" height="1" fill="#3b4a93"/><rect x="7" y="6" width="1" height="1" fill="#035098"/><rect x="8" y="6" width="1" height="1" fill="#067fb5"/><rect x="9" y="6" width="1" height="1" fill="#1ca2a7"/><rect x="10" y="6" width="1" height="1" fill="#7cca9d"/><rect x="11" y="6" width="1" height="1" fill="#37ae8f"/><rect x="0" y="7" width="1" height="1" fill="#040608"/><rect x="1" y="7" width="1" height="1" fill="#181818"/><rect x="2" y="7" width="1" height="1" fill="#323435"/><rect x="3" y="7" width="1" height="1" fill="#525154"/><rect x="4" y="7" width="1" height="1" fill="#6b6a6f"/><rect x="5" y="7" width="1" height="1" fill="#565b70"/><rect x="6" y="7" width="1" height="1" fill="#51668a"/><rect x="7" y="7" width="1" height="1" fill="#09669d"/><rect x="8" y="7" width="1" height="1" fill="#0b97ba"/><rect x="9" y="7" width="1" height="1" fill="#66c6c3"/><rect x="10" y="7" width="1" height="1" fill="#28a79c"/><rect x="0" y="8" width="1" height="1" fill="#000000"/><rect x="1" y="8" width="1" height="1" fill="#030507"/><rect x="2" y="8" width="1" height="1" fill="#1d1f1e"/><rect x="3" y="8" width="1" height="1" fill="#333534"/><rect x="4" y="8" width="1" height="1" fill="#505052"/><rect x="5" y="8" width="1" height="1" fill="#807f84"/><rect x="6" y="8" width="1" height="1" fill="#6c747a"/><rect x="7" y="8" width="1" height="1" fill="#778c97"/><rect x="8" y="8" width="1" height="1" fill="#6399ab"/><rect x="9" y="8" width="1" height="1" fill="#65a1ad"/><rect x="11" y="8" width="1" height="1" fill="#53abb2"/><rect x="0" y="9" width="1" height="1" fill="#000000"/><rect x="1" y="9" width="1" height="1" fill="#000000"/><rect x="2" y="9" width="1" height="1" fill="#161819"/><rect x="3" y="9" width="1" height="1" fill="#262828"/><rect x="4" y="9" width="1" height="1" fill="#424242"/><rect x="5" y="9" width="1" height="1" fill="#646466"/><rect x="6" y="9" width="1" height="1" fill="#939295"/><rect x="7" y="9" width="1" height="1" fill="#93979a"/><rect x="8" y="9" width="1" height="1" fill="#9eadb3"/><rect x="9" y="9" width="1" height="1" fill="#aebfc4"/><rect x="10" y="9" width="1" height="1" fill="#a4b8bc"/><rect x="1" y="10" width="1" height="1" fill="#000000"/><rect x="2" y="10" width="1" height="1" fill="#050709"/><rect x="3" y="10" width="1" height="1" fill="#191b1d"/><rect x="4" y="10" width="1" height="1" fill="#373639"/><rect x="5" y="10" width="1" height="1" fill="#5c5c5e"/><rect x="6" y="10" width="1" height="1" fill="#818384"/><rect x="7" y="10" width="1" height="1" fill="#a4a4a6"/><rect x="8" y="10" width="1" height="1" fill="#c4c6c8"/><rect x="9" y="10" width="1" height="1" fill="#bec2c5"/><rect x="0" y="11" width="1" height="1" fill="#000000"/><rect x="2" y="11" width="1" height="1" fill="#030507"/><rect x="3" y="11" width="1" height="1" fill="#17191a"/><rect x="4" y="11" width="1" height="1" fill="#333536"/><rect x="5" y="11" width="1" height="1" fill="#5b5b5b"/><rect x="6" y="11" width="1" height="1" fill="#858585"/><rect x="7" y="11" width="1" height="1" fill="#a9a8ab"/><rect x="8" y="11" width="1" height="1" fill="#cbcacd"/><rect x="9" y="11" width="1" height="1" fill="#ebebeb"/><rect x="11" y="11" width="1" height="1" fill="#cbcacd"/><rect x="0" y="12" width="1" height="1" fill="#000000"/><rect x="1" y="12" width="1" height="1" fill="#000000"/><rect x="3" y="12" width="1" height="1" fill="#181a1c"/><rect x="4" y="12" width="1" height="1" fill="#343638"/><rect x="5" y="12" width="1" height="1" fill="#6b6b6d"/><rect x="6" y="12" width="1" height="1" fill="#959597"/><rect x="7" y="12" width="1" height="1" fill="#b0afb2"/><rect x="8" y="12" width="1" height="1" fill="#d6d6d8"/><rect x="9" y="12" width="1" height="1" fill="#ebebed"/></svg>